 <?xml version="1.0" encoding="iso-8859-1"?>
<!-- Generator: Adobe Illustrator 19.0.0, SVG Export Plug-In . SVG Version: 6.00 Build 0)  -->
<svg version="1.1" id="Capa_1" xmlns="http://www.w3.org/2000/svg" xmlns:xlink="http://www.w3.org/1999/xlink" x="0px" y="0px"
	 viewBox="0 0 512 512" style="enable-background:new 0 0 512 512;" xml:space="preserve">
<rect x="30" y="61" style="fill:#5A5A5A;" width="452" height="330"/>
<rect x="256" y="61" style="fill:#444444;" width="226" height="330"/>
<rect x="60" y="91" style="fill:#D9E7EC;" width="392" height="300"/>
<rect x="256" y="91" style="fill:#C5D3DD;" width="196" height="300"/>
<path style="fill:#9ED0FF;" d="M256,121c-57.9,0-106,47.1-106,105s48.1,105,106,105s105-47.1,105-105S313.9,121,256,121z"/>
<path style="fill:#73BCFF;" d="M361,226c0,57.9-47.1,105-105,105V121C313.9,121,361,168.1,361,226z"/>
<path style="fill:#3AAAFF;" d="M256,151c-41.4,0-75,33.6-75,75s33.6,75,75,75s75-33.6,75-75S297.4,151,256,151z"/>
<path style="fill:#0095FF;" d="M331,226c0,41.4-33.6,75-75,75V151C297.4,151,331,184.6,331,226z"/>
<g>
	<rect x="171.1" y="211" style="fill:#9ED0FF;" width="169.8" height="30"/>
	<path style="fill:#9ED0FF;" d="M256,121c-31.199,0-45,52.8-45,105s13.801,105,45,105s45-52.8,45-105S287.199,121,256,121z
		 M256,299.5c-5.7-6.901-15-32.1-15-73.5s9.3-66.599,15-73.5c5.7,6.901,15,32.1,15,73.5S261.7,292.599,256,299.5z"/>
</g>
<g>
	<path style="fill:#73BCFF;" d="M301,226c0,52.2-13.801,105-45,105v-31.5c5.7-6.901,15-32.1,15-73.5s-9.3-66.599-15-73.5V121
		C287.199,121,301,173.8,301,226z"/>
	<rect x="256" y="211" style="fill:#73BCFF;" width="84.9" height="30"/>
</g>
<path style="fill:#6E6E6E;" d="M0,361v15c0,41.4,33.6,75,75,75h362c41.4,0,75-33.6,75-75v-15H0z"/>
<path style="fill:#5A5A5A;" d="M512,361v15c0,41.4-33.6,75-75,75H256v-90H512z"/>
<g>
</g>
<g>
</g>
<g>
</g>
<g>
</g>
<g>
</g>
<g>
</g>
<g>
</g>
<g>
</g>
<g>
</g>
<g>
</g>
<g>
</g>
<g>
</g>
<g>
</g>
<g>
</g>
<g>
</g>
</svg>
