<?xml version="1.0" encoding="iso-8859-1"?>
<!-- Generator: Adobe Illustrator 19.0.0, SVG Export Plug-In . SVG Version: 6.00 Build 0)  -->
<svg version="1.1" id="Capa_1" xmlns="http://www.w3.org/2000/svg" xmlns:xlink="http://www.w3.org/1999/xlink" x="0px" y="0px"
	 viewBox="0 0 512 512" style="enable-background:new 0 0 512 512;" xml:space="preserve">
<rect x="211" y="406" style="fill:#5A5A5A;" width="90" height="60"/>
<rect x="256" y="406" style="fill:#444444;" width="45" height="60"/>
<polygon style="fill:#5A5A5A;" points="512,31 512,331 482,361 30,361 0,331 0,31 "/>
<polygon style="fill:#444444;" points="512,31 512,331 482,361 256,361 256,31 "/>
<rect x="30" y="61" style="fill:#D9E7EC;" width="452" height="300"/>
<rect x="256" y="61" style="fill:#C5D3DD;" width="226" height="300"/>
<rect y="331" style="fill:#6E6E6E;" width="512" height="90"/>
<rect x="256" y="331" style="fill:#5A5A5A;" width="256" height="90"/>
<path style="fill:#9ED0FF;" d="M256,91c-57.9,0-105,47.1-105,105s47.1,105,105,105s105-47.1,105-105S313.9,91,256,91z"/>
<path style="fill:#73BCFF;" d="M361,196c0,57.9-47.1,105-105,105V91C313.9,91,361,138.1,361,196z"/>
<path style="fill:#3AAAFF;" d="M256,121c-41.4,0-75,33.6-75,75s33.6,75,75,75s75-33.6,75-75S297.4,121,256,121z"/>
<path style="fill:#0095FF;" d="M331,196c0,41.4-33.6,75-75,75V121C297.4,121,331,154.6,331,196z"/>
<g>
	<rect x="171.1" y="181" style="fill:#9ED0FF;" width="169.8" height="30"/>
	<path style="fill:#9ED0FF;" d="M256,91c-31.199,0-45,52.8-45,105s13.801,105,45,105s45-52.8,45-105S287.199,91,256,91z M256,269.5
		c-5.7-6.901-15-32.1-15-73.5s9.3-66.599,15-73.5c5.7,6.901,15,32.1,15,73.5S261.7,262.599,256,269.5z"/>
</g>
<g>
	<path style="fill:#73BCFF;" d="M301,196c0,52.2-13.801,105-45,105v-31.5c5.7-6.901,15-32.1,15-73.5s-9.3-66.599-15-73.5V91
		C287.199,91,301,143.8,301,196z"/>
	<rect x="256" y="181" style="fill:#73BCFF;" width="84.9" height="30"/>
</g>
<rect x="151" y="451" style="fill:#6E6E6E;" width="210" height="30"/>
<rect x="256" y="451" style="fill:#5A5A5A;" width="105" height="30"/>
<g>
</g>
<g>
</g>
<g>
</g>
<g>
</g>
<g>
</g>
<g>
</g>
<g>
</g>
<g>
</g>
<g>
</g>
<g>
</g>
<g>
</g>
<g>
</g>
<g>
</g>
<g>
</g>
<g>
</g>
</svg>
