<svg id="Capa_1" enable-background="new 0 0 512 512" height="512" viewBox="0 0 512 512" width="512" xmlns="http://www.w3.org/2000/svg"><path d="m366 152c-8.284 0-15-6.716-15-15v-62c0-8.284 6.716-15 15-15s15 6.716 15 15v62c0 8.284-6.716 15-15 15z" fill="#4f5561"/><path d="m256 212h-210c-8.284 0-15-6.716-15-15v-60c0-8.284 6.716-15 15-15h210c8.284 0 15 6.716 15 15v60c0 8.284-6.716 15-15 15z" fill="#4f5561"/><path d="m256 122h210c8.284 0 15 6.716 15 15v60c0 8.284-6.716 15-15 15h-210z" fill="#37404b"/><path d="m256 152h195v60h-195z" fill="#acd223"/><path d="m91 197v-182c0-8.284 6.716-15 15-15h90c8.284 0 15 6.716 15 15v182c0 8.284-6.716 15-15 15h-90c-8.284 0-15-6.716-15-15z" fill="#e3f5ff"/><path d="m426 90h-120c-8.284 0-15-6.716-15-15v-60c0-8.284 6.716-15 15-15h120c8.284 0 15 6.716 15 15v60c0 8.284-6.716 15-15 15z" fill="#6e7382"/><path d="m31 195.719-30.782 178.735c-.948 5.502 1.23 11.177 5.883 14.625 2.658 1.97 5.937 2.921 9.245 2.921h240.654c8.284 0 15-6.716 15-15v-181.281z" fill="#6e7382"/><path d="m256 195.719v196.281h240.654c3.308 0 6.587-.952 9.245-2.921 4.653-3.448 6.831-9.123 5.883-14.625l-30.782-178.735z" fill="#4f5561"/><path d="m512 377v120c0 8.284-6.716 15-15 15h-482c-8.284 0-15-6.716-15-15v-120z" fill="#4f5561"/><path d="m256 512h241c8.284 0 15-6.716 15-15v-120h-256z" fill="#37404b"/><circle cx="311" cy="257" fill="#acd223" r="15"/><circle cx="366" cy="257" fill="#507be9" r="15"/><circle cx="421" cy="257" fill="#fa575a" r="15"/><g fill="#c6e1f5"><circle cx="311" cy="317" r="15"/><circle cx="366" cy="317" r="15"/><circle cx="421" cy="317" r="15"/></g><path d="m336 459.5h-260c-8.284 0-15-6.716-15-15s6.716-15 15-15h260c8.284 0 15 6.716 15 15s-6.716 15-15 15z" fill="#e3f5ff"/><path d="m336 429.5h-80v30h80c8.284 0 15-6.716 15-15s-6.716-15-15-15z" fill="#c6e1f5"/><path d="m436 459.5h-40c-8.284 0-15-6.716-15-15s6.716-15 15-15h40c8.284 0 15 6.716 15 15s-6.716 15-15 15z" fill="#c6e1f5"/><path d="m321 60h90v-30h-90z" fill="#7dbeff"/></svg>