<?xml version="1.0" encoding="utf-8"?>
<!-- Generator: Adobe Illustrator 21.1.0, SVG Export Plug-In . SVG Version: 6.00 Build 0)  -->
<svg version="1.1" id="Layer_1" xmlns="http://www.w3.org/2000/svg" xmlns:xlink="http://www.w3.org/1999/xlink" x="0px" y="0px"
	 viewBox="0 0 99.3 112.4" style="enable-background:new 0 0 99.3 112.4;" xml:space="preserve">
<style type="text/css">
	.st0{fill:none;stroke:#23B8F9;stroke-width:1.684;stroke-linecap:round;stroke-miterlimit:10;}
	.st1{fill:none;stroke:#23B8F9;stroke-width:1.203;stroke-linecap:round;stroke-miterlimit:10;}
	.st2{fill:none;stroke:#23B8F9;stroke-width:1.984;stroke-miterlimit:10;}
	.st3{clip-path:url(#SVGID_2_);fill:none;stroke:#23B8F9;stroke-width:1.684;stroke-linecap:round;stroke-miterlimit:10;}
	.st4{clip-path:url(#SVGID_4_);fill:none;stroke:#23B8F9;stroke-width:1.984;stroke-miterlimit:10;}
	.st5{clip-path:url(#SVGID_6_);fill:none;stroke:#23B8F9;stroke-width:1.984;stroke-miterlimit:10;}
	.st6{clip-path:url(#SVGID_6_);fill:none;stroke:#23B8F9;stroke-width:1.684;stroke-linecap:round;stroke-miterlimit:10;}
	.st7{clip-path:url(#SVGID_8_);fill:none;stroke:#23B8F9;stroke-width:1.984;stroke-miterlimit:10;}
	.st8{clip-path:url(#SVGID_10_);fill:none;stroke:#23B8F9;stroke-width:1.984;stroke-miterlimit:10;}
	.st9{clip-path:url(#SVGID_10_);fill:none;stroke:#23B8F9;stroke-width:1.684;stroke-linecap:round;stroke-miterlimit:10;}
	.st10{clip-path:url(#SVGID_12_);fill:none;stroke:#23B8F9;stroke-width:1.984;stroke-miterlimit:10;}
	.st11{clip-path:url(#SVGID_14_);fill:none;stroke:#23B8F9;stroke-width:1.684;stroke-linecap:round;stroke-miterlimit:10;}
	.st12{clip-path:url(#SVGID_16_);fill:none;stroke:#23B8F9;stroke-width:1.984;stroke-miterlimit:10;}
	.st13{clip-path:url(#SVGID_18_);fill:none;stroke:#23B8F9;stroke-width:1.684;stroke-linecap:round;stroke-miterlimit:10;}
	.st14{clip-path:url(#SVGID_20_);fill:none;stroke:#23B8F9;stroke-width:1.984;stroke-miterlimit:10;}
	.st15{clip-path:url(#SVGID_22_);fill:none;stroke:#23B8F9;stroke-width:1.684;stroke-linecap:round;stroke-miterlimit:10;}
	.st16{clip-path:url(#SVGID_24_);fill:none;stroke:#23B8F9;stroke-width:1.984;stroke-miterlimit:10;}
</style>
<polygon class="st0" points="49.1,32.9 70.2,45.5 70.2,68.8 49.3,81.4 28.2,69.4 28.2,45.9 "/>
<polyline class="st1" points="67.8,47.3 49.3,58.3 49.3,78.6 "/>
<line class="st1" x1="30.3" y1="47.6" x2="49.3" y2="58.3"/>
<polygon class="st2" points="49.1,32.9 70.2,45.5 70.2,68.8 49.3,81.4 28.2,69.4 28.2,45.9 "/>
<polyline class="st2" points="67.8,47.3 49.3,58.3 49.3,78.6 "/>
<line class="st2" x1="30.3" y1="47.6" x2="49.3" y2="58.3"/>
<g>
	<defs>
		<rect id="SVGID_1_" width="99.3" height="112.4"/>
	</defs>
	<clipPath id="SVGID_2_">
		<use xlink:href="#SVGID_1_"  style="overflow:visible;"/>
	</clipPath>
	<polyline class="st3" points="28,62.6 22.1,66.1 1,54.1 1,30.6 21.9,17.6 43,30.2 43,36.7 	"/>
</g>
<polyline class="st1" points="40.6,32 22.1,43.1 22.1,63.3 "/>
<line class="st1" x1="3.1" y1="32.3" x2="22.1" y2="43.1"/>
<g>
	<defs>
		<rect id="SVGID_3_" width="99.3" height="112.4"/>
	</defs>
	<clipPath id="SVGID_4_">
		<use xlink:href="#SVGID_3_"  style="overflow:visible;"/>
	</clipPath>
	<polyline class="st4" points="28,62.6 22.1,66.1 1,54.1 1,30.6 21.9,17.6 43,30.2 43,36.7 	"/>
</g>
<polyline class="st2" points="40.6,32 22.1,43.1 22.1,63.3 "/>
<g>
	<defs>
		<rect id="SVGID_5_" width="99.3" height="112.4"/>
	</defs>
	<clipPath id="SVGID_6_">
		<use xlink:href="#SVGID_5_"  style="overflow:visible;"/>
	</clipPath>
	<line class="st5" x1="3.1" y1="32.3" x2="22.1" y2="43.1"/>
	<polyline class="st6" points="27.9,91.3 22.1,94.8 1,82.8 1,59.3 5.4,56.6 	"/>
</g>
<polyline class="st1" points="27.9,68.3 22.1,71.8 22.1,92 "/>
<line class="st1" x1="3.1" y1="61" x2="22.1" y2="71.8"/>
<g>
	<defs>
		<rect id="SVGID_7_" width="99.3" height="112.4"/>
	</defs>
	<clipPath id="SVGID_8_">
		<use xlink:href="#SVGID_7_"  style="overflow:visible;"/>
	</clipPath>
	<polyline class="st7" points="27.9,91.3 22.1,94.8 1,82.8 1,59.3 5.4,56.6 	"/>
</g>
<polyline class="st2" points="27.9,68.3 22.1,71.8 22.1,92 "/>
<g>
	<defs>
		<rect id="SVGID_9_" width="99.3" height="112.4"/>
	</defs>
	<clipPath id="SVGID_10_">
		<use xlink:href="#SVGID_9_"  style="overflow:visible;"/>
	</clipPath>
	<line class="st8" x1="3.1" y1="61" x2="22.1" y2="71.8"/>
	<polyline class="st9" points="56.3,37.1 56.3,30.6 77.2,17.6 98.3,30.2 98.3,53.5 77.4,66.1 70.2,62 	"/>
</g>
<polyline class="st1" points="95.9,32 77.4,43.1 77.4,63.3 "/>
<line class="st1" x1="58.4" y1="32.3" x2="77.4" y2="43.1"/>
<g>
	<defs>
		<rect id="SVGID_11_" width="99.3" height="112.4"/>
	</defs>
	<clipPath id="SVGID_12_">
		<use xlink:href="#SVGID_11_"  style="overflow:visible;"/>
	</clipPath>
	<polyline class="st10" points="56.3,37.1 56.3,30.6 77.2,17.6 98.3,30.2 98.3,53.5 77.4,66.1 70.2,62 	"/>
</g>
<polyline class="st2" points="95.9,32 77.4,43.1 77.4,63.3 "/>
<line class="st2" x1="58.4" y1="32.3" x2="77.4" y2="43.1"/>
<g>
	<defs>
		<rect id="SVGID_13_" width="99.3" height="112.4"/>
	</defs>
	<clipPath id="SVGID_14_">
		<use xlink:href="#SVGID_13_"  style="overflow:visible;"/>
	</clipPath>
	<polyline class="st11" points="28.3,21.2 28.3,14.2 49.2,1.2 70.3,13.8 70.3,22 	"/>
</g>
<polyline class="st1" points="67.9,15.6 49.3,26.6 49.3,32.9 "/>
<line class="st1" x1="30.4" y1="15.9" x2="49.3" y2="26.6"/>
<g>
	<defs>
		<rect id="SVGID_15_" width="99.3" height="112.4"/>
	</defs>
	<clipPath id="SVGID_16_">
		<use xlink:href="#SVGID_15_"  style="overflow:visible;"/>
	</clipPath>
	<polyline class="st12" points="28.3,21.2 28.3,14.2 49.2,1.2 70.3,13.8 70.3,22 	"/>
</g>
<polyline class="st2" points="67.9,15.6 49.3,26.6 49.3,32.9 "/>
<line class="st2" x1="30.4" y1="15.9" x2="49.3" y2="26.6"/>
<g>
	<defs>
		<rect id="SVGID_17_" width="99.3" height="112.4"/>
	</defs>
	<clipPath id="SVGID_18_">
		<use xlink:href="#SVGID_17_"  style="overflow:visible;"/>
	</clipPath>
	<polyline class="st13" points="94.6,56.2 98.3,58.4 98.3,82.2 77.4,94.8 70.2,90.7 	"/>
</g>
<polyline class="st1" points="95.9,60.7 77.4,71.8 77.4,92 "/>
<line class="st1" x1="70.2" y1="67.7" x2="77.4" y2="71.8"/>
<g>
	<defs>
		<rect id="SVGID_19_" width="99.3" height="112.4"/>
	</defs>
	<clipPath id="SVGID_20_">
		<use xlink:href="#SVGID_19_"  style="overflow:visible;"/>
	</clipPath>
	<polyline class="st14" points="94.6,56.2 98.3,58.4 98.3,82.2 77.4,94.8 70.2,90.7 	"/>
</g>
<polyline class="st2" points="95.9,60.7 77.4,71.8 77.4,92 "/>
<line class="st2" x1="70.2" y1="67.7" x2="77.4" y2="71.8"/>
<g>
	<defs>
		<rect id="SVGID_21_" width="99.3" height="112.4"/>
	</defs>
	<clipPath id="SVGID_22_">
		<use xlink:href="#SVGID_21_"  style="overflow:visible;"/>
	</clipPath>
	<polyline class="st15" points="65.6,72.7 70.1,75.4 70.1,98.7 49.1,111.3 28.1,99.3 28.1,75.8 32.4,73.1 	"/>
</g>
<polyline class="st1" points="67.7,77.2 49.1,88.2 49.1,108.5 "/>
<line class="st1" x1="30.2" y1="77.5" x2="49.1" y2="88.2"/>
<g>
	<defs>
		<rect id="SVGID_23_" width="99.3" height="112.4"/>
	</defs>
	<clipPath id="SVGID_24_">
		<use xlink:href="#SVGID_23_"  style="overflow:visible;"/>
	</clipPath>
	<polyline class="st16" points="65.6,72.7 70.1,75.4 70.1,98.7 49.1,111.3 28.1,99.3 28.1,75.8 32.4,73.1 	"/>
</g>
<polyline class="st2" points="67.7,77.2 49.1,88.2 49.1,108.5 "/>
<line class="st2" x1="30.2" y1="77.5" x2="49.1" y2="88.2"/>
</svg>
