<svg id="Layer_35" enable-background="new 0 0 64 64" height="512" viewBox="0 0 64 64" width="512" xmlns="http://www.w3.org/2000/svg"><path d="m18 10v4h-11c-.55 0-1 .45-1 1v7 8 8 8c-2.21 0-4-1.79-4-4v-28c0-2.21 1.79-4 4-4z" fill="#ccd1d9"/><path d="m58 46v-8-8-8-7c0-.55-.45-1-1-1h-11v-4h12c2.21 0 4 1.79 4 4v28c0 2.21-1.79 4-4 4z" fill="#ccd1d9"/><path d="m46 39.45c-1.11-1.17-2.47-2.1-4-2.7v-6.75-8-8-7c0-.55-.45-1-1-1h-18c-.55 0-1 .45-1 1v7 8 8 10.22.01c-1.52.34-2.89 1.07-4 2.06v-4.29-8-8-8-4-4c0-2.21 1.79-4 4-4h20c2.21 0 4 1.79 4 4v4 4 8 8 8z" fill="#969faa"/><path d="m7 14c-.55 0-1 .45-1 1v31h12.407l-.407-32z" fill="#ffeaa7"/><path d="m57 14h-11v32.45l12-.45v-31c0-.55-.45-1-1-1z" fill="#ffeaa7"/><path d="m41 6h-18c-.55 0-1 .45-1 1v33.22.01l20 .52v-33.75c0-.55-.45-1-1-1z" fill="#69d6f4"/><path d="m28.61 41.27c1.92-3.16 5.41-5.27 9.39-5.27 1.41 0 2.76.27 4 .75 1.53.6 2.89 1.53 4 2.7 1.65 1.74 2.73 4.02 2.95 6.55.03.33.05.66.05 1s-.02.67-.04 1h.04c3.87 0 7 3.13 7 7s-3.13 7-7 7h-34c-3.87 0-7-3.13-7-7s3.13-7 7-7h.05c.08-.69.23-1.36.47-2 .5-1.44 1.36-2.71 2.48-3.71 1.11-.99 2.48-1.72 4-2.06.64-.15 1.31-.23 2-.23 1.69 0 3.26.46 4.61 1.27z" fill="#e6e9ed"/><path d="m37 9h2v2h-2z"/><path d="m33 9h2v2h-2z"/><path d="m25 17h2v2h-2z"/><path d="m29 17h2v2h-2z"/><path d="m37 25h2v2h-2z"/><path d="m33 25h2v2h-2z"/><path d="m25 33h2v2h-2z"/><path d="m29 33h2v2h-2z"/><path d="m9 17h2v2h-2z"/><path d="m13 17h2v2h-2z"/><path d="m9 33h2v2h-2z"/><path d="m13 33h2v2h-2z"/><path d="m58 9h-11v-3c0-2.757-2.243-5-5-5h-20c-2.757 0-5 2.243-5 5v3h-11c-2.757 0-5 2.243-5 5v28c0 2.757 2.243 5 5 5h8.201c-.003.013-.004.027-.006.041-4.035.405-7.195 3.82-7.195 7.959 0 4.411 3.589 8 8 8h34c4.411 0 8-3.589 8-8 0-4.073-3.062-7.438-7.003-7.931 0-.023.003-.046.003-.069h8c2.757 0 5-2.243 5-5v-28c0-2.757-2.243-5-5-5zm-1 20h-10v-6h10zm0 2v6h-10v-6zm0-10h-10v-6h10zm-35-18h20c1.654 0 3 1.346 3 3v31.273c-.625-.451-1.293-.842-2-1.168v-29.105c0-1.103-.897-2-2-2h-18c-1.103 0-2 .897-2 2v32.465c-.703.22-1.372.516-2 .878v-34.343c0-1.654 1.346-3 3-3zm6.285 36.984c-1.334-.634-2.793-.984-4.285-.984-.337 0-.671.019-1 .052v-8.052h18v4.395c-.961-.249-1.962-.395-3-.395-3.996 0-7.533 1.971-9.715 4.984zm12.715-26.984h-18v-6h18zm-18 2h18v6h-18zm0 8h18v6h-18zm-6-2h-10v-6h10zm-10 2h10v6h-10zm0 8h10v6h-10zm-4 11v-28c0-1.654 1.346-3 3-3h11v2h-10c-1.103 0-2 .897-2 2v29.816c-1.161-.414-2-1.514-2-2.816zm4 3v-6h10v2.863c-.907.889-1.647 1.949-2.165 3.137zm48 10c0 3.309-2.691 6-6 6h-34c-3.309 0-6-2.691-6-6s2.691-6 6-6 6 2.691 6 6h2c0-3.991-2.941-7.299-6.767-7.895.855-3.541 4.028-6.105 7.767-6.105 1.127 0 2.233.243 3.252.697-.794 1.601-1.252 3.398-1.252 5.303h2c0-5.514 4.486-10 10-10s10 4.486 10 10c0 .023-.003.046-.003.07-3.938.496-6.997 3.859-6.997 7.93h2c0-3.309 2.691-6 6-6s6 2.691 6 6zm-5.181-10c-.379-2.243-1.378-4.273-2.819-5.911v-.089h10v6zm11.181-3c0 1.302-.839 2.402-2 2.816v-29.816c0-1.103-.897-2-2-2h-10v-2h11c1.654 0 3 1.346 3 3z"/><path d="m53 17h2v2h-2z"/><path d="m49 17h2v2h-2z"/><path d="m53 33h2v2h-2z"/><path d="m49 33h2v2h-2z"/><path d="m43.938 46.142 1.98-.283c-.559-3.911-3.963-6.859-7.918-6.859-.776 0-1.545.111-2.285.331l.57 1.918c.555-.165 1.132-.249 1.715-.249 2.967 0 5.52 2.21 5.938 5.142z"/><path d="m15 57h2v2h-2z"/><path d="m19 57h2v2h-2z"/><path d="m23 57h2v2h-2z"/></svg>