<?xml version="1.0"?>
<svg xmlns="http://www.w3.org/2000/svg" width="512" height="512" viewBox="0 0 128 128"><g><path d="M115.5,84.417a1.751,1.751,0,0,0-1.75,1.75V94.5a1.75,1.75,0,0,0,3.5,0V86.167A1.751,1.751,0,0,0,115.5,84.417Z"/><path d="M121.5,4.75H6.5A1.751,1.751,0,0,0,4.75,6.5v115a1.751,1.751,0,0,0,1.75,1.75h115a1.751,1.751,0,0,0,1.75-1.75V6.5A1.751,1.751,0,0,0,121.5,4.75Zm-92.66,109v-51h36.3V77.375H63.894a1.75,1.75,0,0,0,0,3.5H65.14v14.75H63.894a1.75,1.75,0,0,0,0,3.5H65.14V113.75Zm39.8-14.625h1.254a1.75,1.75,0,0,0,0-3.5H68.64V80.875h1.254a1.75,1.75,0,0,0,0-3.5H68.64V61a1.751,1.751,0,0,0-1.75-1.75H27.09A1.751,1.751,0,0,0,25.34,61v52.75H8.25V14.25h111.5v99.5H68.64ZM8.25,8.25h111.5v2.5H8.25Zm111.5,111.5H8.25v-2.5h111.5Z"/><path d="M114.25,21.5a1.751,1.751,0,0,0-1.75-1.75H84.991a1.751,1.751,0,0,0-1.75,1.75V47.667a1.751,1.751,0,0,0,1.75,1.75H112.5a1.751,1.751,0,0,0,1.75-1.75Zm-3.5,24.417H86.741V23.25H110.75Z"/><path d="M92.746,30.333h12a1.75,1.75,0,1,0,0-3.5h-12a1.75,1.75,0,0,0,0,3.5Z"/><path d="M92.746,36.333h12a1.75,1.75,0,1,0,0-3.5h-12a1.75,1.75,0,0,0,0,3.5Z"/><path d="M92.746,42.333h12a1.75,1.75,0,1,0,0-3.5h-12a1.75,1.75,0,0,0,0,3.5Z"/><path d="M59.783,40.043l-1.516-.875.316-.179a1.75,1.75,0,0,0-1.727-3.045L54.75,37.138l-4.26-2.46,4.25-2.454,2.131,1.316a1.75,1.75,0,1,0,1.839-2.978l-.527-.325,1.435-.829a1.75,1.75,0,1,0-1.75-3.031l-1.363.787,0-.538a1.749,1.749,0,0,0-1.75-1.741h-.008A1.749,1.749,0,0,0,53,26.643l.012,2.536L48.74,31.647V26.66l2.173-1.205a1.75,1.75,0,1,0-1.7-3.061l-.476.264V20.917a1.75,1.75,0,0,0-3.5,0v1.775l-.537-.3a1.75,1.75,0,0,0-1.7,3.061l2.234,1.239v4.953l-4.111-2.373.117-2.8a1.75,1.75,0,1,0-3.5-.146l-.041.97-1.6-.922a1.75,1.75,0,0,0-1.75,3.031l1.186.685-.151.085a1.75,1.75,0,1,0,1.727,3.045l1.94-1.1,4.427,2.555L39.4,37.041l-2.29-1.414A1.749,1.749,0,1,0,35.27,38.6l.685.424L34.2,40.043a1.75,1.75,0,1,0,1.75,3.032l1.528-.883,0,.348a1.75,1.75,0,0,0,1.75,1.742h.008a1.752,1.752,0,0,0,1.742-1.759l-.011-2.346,4.274-2.468v4.8l-2.174,1.206a1.75,1.75,0,1,0,1.7,3.06l.475-.263V48.25a1.75,1.75,0,0,0,3.5,0V46.475l.536.3a1.75,1.75,0,1,0,1.7-3.06L48.74,42.473V37.709l4.1,2.37-.11,2.612a1.75,1.75,0,0,0,1.675,1.822l.075,0a1.749,1.749,0,0,0,1.747-1.677l.033-.785,1.77,1.022a1.75,1.75,0,0,0,1.75-3.032Z"/></g></svg>
